<svg id="visual" viewBox="0 0 1920 1080" width="1920" height="1080" xmlns="http://www.w3.org/2000/svg" xmlns:xlink="http://www.w3.org/1999/xlink" version="1.1"><path d="M0 681L213 648L427 768L640 667L853 783L1067 814L1280 676L1493 735L1707 659L1920 681L1920 1081L1707 1081L1493 1081L1280 1081L1067 1081L853 1081L640 1081L427 1081L213 1081L0 1081Z" fill="#ffdd03"></path><path d="M0 718L213 759L427 759L640 874L853 753L1067 888L1280 876L1493 832L1707 882L1920 889L1920 1081L1707 1081L1493 1081L1280 1081L1067 1081L853 1081L640 1081L427 1081L213 1081L0 1081Z" fill="#fed401"></path><path d="M0 949L213 946L427 829L640 884L853 873L1067 846L1280 920L1493 952L1707 943L1920 903L1920 1081L1707 1081L1493 1081L1280 1081L1067 1081L853 1081L640 1081L427 1081L213 1081L0 1081Z" fill="#fccc01"></path><path d="M0 997L213 919L427 983L640 1029L853 1030L1067 1009L1280 956L1493 1016L1707 1014L1920 937L1920 1081L1707 1081L1493 1081L1280 1081L1067 1081L853 1081L640 1081L427 1081L213 1081L0 1081Z" fill="#fbc403"></path></svg>